<mxfile host="65bd71144e">
    <diagram id="wixo2_XxQwMNRnvOq44j" name="Address_Book">
        <mxGraphModel dx="640" dy="478" grid="1" gridSize="10" guides="1" tooltips="1" connect="1" arrows="1" fold="1" page="1" pageScale="1" pageWidth="827" pageHeight="1169" math="0" shadow="0">
            <root>
                <mxCell id="0"/>
                <mxCell id="1" parent="0"/>
                <object label="Person" Key="" Null="" Unsigned="" AI="" Default="" Type="" id="3">
                    <mxCell style="swimlane;fontStyle=0;childLayout=stackLayout;horizontal=1;startSize=30;horizontalStack=0;resizeParent=1;resizeParentMax=0;resizeLast=0;collapsible=1;marginBottom=0;" parent="1" vertex="1">
                        <mxGeometry x="50" y="80" width="140" height="210" as="geometry"/>
                    </mxCell>
                </object>
                <object label="personID" Key="PRIMARY" Null="No" Unsigned="Yes" AI="Yes" Default="" Type="int(3)" id="4">
                    <mxCell style="text;strokeColor=none;fillColor=none;align=left;verticalAlign=middle;spacingLeft=4;spacingRight=4;overflow=hidden;points=[[0,0.5],[1,0.5]];portConstraint=eastwest;rotatable=0;" parent="3" vertex="1">
                        <mxGeometry y="30" width="140" height="30" as="geometry"/>
                    </mxCell>
                </object>
                <object label="addressID" Key="FOREIGN" Null="No" Unsigned="Yes" AI="No" Default="" Type="int(3)" placeholders="null" id="7">
                    <mxCell style="text;strokeColor=none;fillColor=none;align=left;verticalAlign=middle;spacingLeft=4;spacingRight=4;overflow=hidden;points=[[0,0.5],[1,0.5]];portConstraint=eastwest;rotatable=0;" parent="3" vertex="1">
                        <mxGeometry y="60" width="140" height="30" as="geometry"/>
                    </mxCell>
                </object>
                <object label="firstName" Key="" Null="No" Unsigned="" AI="No" Default="" Type="VARCHAR(255)" id="8">
                    <mxCell style="text;strokeColor=none;fillColor=none;align=left;verticalAlign=middle;spacingLeft=4;spacingRight=4;overflow=hidden;points=[[0,0.5],[1,0.5]];portConstraint=eastwest;rotatable=0;" parent="3" vertex="1">
                        <mxGeometry y="90" width="140" height="30" as="geometry"/>
                    </mxCell>
                </object>
                <object label="middleName" Key="" Null="Yes" Unsigned="" AI="No" Default="" Type="VARCHAR(255)" placeholders="null" id="9">
                    <mxCell style="text;strokeColor=none;fillColor=none;align=left;verticalAlign=middle;spacingLeft=4;spacingRight=4;overflow=hidden;points=[[0,0.5],[1,0.5]];portConstraint=eastwest;rotatable=0;" parent="3" vertex="1">
                        <mxGeometry y="120" width="140" height="30" as="geometry"/>
                    </mxCell>
                </object>
                <object label="surname" Key="" Null="No" Unsigned="" AI="No" Default="" Type="VARCHAR(255)" placeholders="null" id="10">
                    <mxCell style="text;strokeColor=none;fillColor=none;align=left;verticalAlign=middle;spacingLeft=4;spacingRight=4;overflow=hidden;points=[[0,0.5],[1,0.5]];portConstraint=eastwest;rotatable=0;" parent="3" vertex="1">
                        <mxGeometry y="150" width="140" height="30" as="geometry"/>
                    </mxCell>
                </object>
                <object label="status" Key="" Null="No" Unsigned="Yes" AI="No" Default="1" Type="int(1)" id="11">
                    <mxCell style="text;strokeColor=none;fillColor=none;align=left;verticalAlign=middle;spacingLeft=4;spacingRight=4;overflow=hidden;points=[[0,0.5],[1,0.5]];portConstraint=eastwest;rotatable=0;" parent="3" vertex="1">
                        <mxGeometry y="180" width="140" height="30" as="geometry"/>
                    </mxCell>
                </object>
                <object label="Address" Key="" Null="" Unsigned="" AI="" Default="" Type="" id="17">
                    <mxCell style="swimlane;fontStyle=0;childLayout=stackLayout;horizontal=1;startSize=30;horizontalStack=0;resizeParent=1;resizeParentMax=0;resizeLast=0;collapsible=1;marginBottom=0;" parent="1" vertex="1">
                        <mxGeometry x="380" y="80" width="140" height="270" as="geometry"/>
                    </mxCell>
                </object>
                <object label="addressID" Key="PRIMARY" Null="No" Unsigned="Yes" AI="Yes" Default="" Type="int(3)" id="18">
                    <mxCell style="text;strokeColor=none;fillColor=none;align=left;verticalAlign=middle;spacingLeft=4;spacingRight=4;overflow=hidden;points=[[0,0.5],[1,0.5]];portConstraint=eastwest;rotatable=0;" parent="17" vertex="1">
                        <mxGeometry y="30" width="140" height="30" as="geometry"/>
                    </mxCell>
                </object>
                <object label="houseNameNum" Key="" Null="No" Unsigned="" AI="No" Default="" Type="VARCHAR(255)" placeholders="null" id="19">
                    <mxCell style="text;strokeColor=none;fillColor=none;align=left;verticalAlign=middle;spacingLeft=4;spacingRight=4;overflow=hidden;points=[[0,0.5],[1,0.5]];portConstraint=eastwest;rotatable=0;" parent="17" vertex="1">
                        <mxGeometry y="60" width="140" height="30" as="geometry"/>
                    </mxCell>
                </object>
                <object label="addressTwo" Key="" Null="No" Unsigned="" AI="No" Default="" Type="VARCHAR(255)" placeholders="null" id="20">
                    <mxCell style="text;strokeColor=none;fillColor=none;align=left;verticalAlign=middle;spacingLeft=4;spacingRight=4;overflow=hidden;points=[[0,0.5],[1,0.5]];portConstraint=eastwest;rotatable=0;" parent="17" vertex="1">
                        <mxGeometry y="90" width="140" height="30" as="geometry"/>
                    </mxCell>
                </object>
                <object label="addressThree" Key="" Null="Yes" Unsigned="" AI="No" Default="" Type="VARCHAR(255)" placeholders="null" id="21">
                    <mxCell style="text;strokeColor=none;fillColor=none;align=left;verticalAlign=middle;spacingLeft=4;spacingRight=4;overflow=hidden;points=[[0,0.5],[1,0.5]];portConstraint=eastwest;rotatable=0;" parent="17" vertex="1">
                        <mxGeometry y="120" width="140" height="30" as="geometry"/>
                    </mxCell>
                </object>
                <object label="townCity" Key="" Null="No" Unsigned="" AI="No" Default="" Type="VARCHAR(255)" placeholders="null" id="22">
                    <mxCell style="text;strokeColor=none;fillColor=none;align=left;verticalAlign=middle;spacingLeft=4;spacingRight=4;overflow=hidden;points=[[0,0.5],[1,0.5]];portConstraint=eastwest;rotatable=0;" parent="17" vertex="1">
                        <mxGeometry y="150" width="140" height="30" as="geometry"/>
                    </mxCell>
                </object>
                <object label="county" Key="" Null="No" Unsigned="" AI="No" Default="" Type="VARCHAR(255)" placeholders="null" id="25">
                    <mxCell style="text;strokeColor=none;fillColor=none;align=left;verticalAlign=middle;spacingLeft=4;spacingRight=4;overflow=hidden;points=[[0,0.5],[1,0.5]];portConstraint=eastwest;rotatable=0;" parent="17" vertex="1">
                        <mxGeometry y="180" width="140" height="30" as="geometry"/>
                    </mxCell>
                </object>
                <object label="postCode" Key="" Null="No" Unsigned="" AI="No" Default="" Type="VARCHAR(255)" placeholders="null" id="23">
                    <mxCell style="text;strokeColor=none;fillColor=none;align=left;verticalAlign=middle;spacingLeft=4;spacingRight=4;overflow=hidden;points=[[0,0.5],[1,0.5]];portConstraint=eastwest;rotatable=0;" parent="17" vertex="1">
                        <mxGeometry y="210" width="140" height="30" as="geometry"/>
                    </mxCell>
                </object>
                <object label="status" Key="" Null="No" Unsigned="Yes" AI="No" Default="1" Type="int(1)" placeholders="null" id="24">
                    <mxCell style="text;strokeColor=none;fillColor=none;align=left;verticalAlign=middle;spacingLeft=4;spacingRight=4;overflow=hidden;points=[[0,0.5],[1,0.5]];portConstraint=eastwest;rotatable=0;" parent="17" vertex="1">
                        <mxGeometry y="240" width="140" height="30" as="geometry"/>
                    </mxCell>
                </object>
                <mxCell id="26" value="" style="edgeStyle=orthogonalEdgeStyle;fontSize=12;html=1;endArrow=ERoneToMany;startArrow=ERmandOne;exitX=0;exitY=0.5;exitDx=0;exitDy=0;entryX=1;entryY=0.5;entryDx=0;entryDy=0;" parent="1" source="18" target="7" edge="1">
                    <mxGeometry width="100" height="100" relative="1" as="geometry">
                        <mxPoint x="200" y="430" as="sourcePoint"/>
                        <mxPoint x="300" y="330" as="targetPoint"/>
                    </mxGeometry>
                </mxCell>
            </root>
        </mxGraphModel>
    </diagram>
    <diagram id="PH26eG_zwET5o4haNEqr" name="Shopping_Cart">
        <mxGraphModel dx="1467" dy="478" grid="1" gridSize="10" guides="1" tooltips="1" connect="1" arrows="1" fold="1" page="1" pageScale="1" pageWidth="827" pageHeight="1169" math="0" shadow="0">
            <root>
                <mxCell id="AxVJe0N2GihpmEPwWlMF-0"/>
                <mxCell id="AxVJe0N2GihpmEPwWlMF-1" parent="AxVJe0N2GihpmEPwWlMF-0"/>
                <mxCell id="AxVJe0N2GihpmEPwWlMF-2" value="" style="edgeStyle=orthogonalEdgeStyle;fontSize=12;html=1;endArrow=ERoneToMany;startArrow=ERmandOne;exitX=1;exitY=0.5;exitDx=0;exitDy=0;entryX=0;entryY=0.5;entryDx=0;entryDy=0;" parent="AxVJe0N2GihpmEPwWlMF-1" source="bAjtnWxztzp2IEA-0m-J-19" target="bAjtnWxztzp2IEA-0m-J-30" edge="1">
                    <mxGeometry width="100" height="100" relative="1" as="geometry">
                        <mxPoint x="-630" y="540" as="sourcePoint"/>
                        <mxPoint x="-530" y="440" as="targetPoint"/>
                        <Array as="points">
                            <mxPoint x="-620" y="395"/>
                            <mxPoint x="-620" y="465"/>
                        </Array>
                    </mxGeometry>
                </mxCell>
                <object label="Store" Key="" Null="" Unsigned="" AI="" Default="" Type="" id="bAjtnWxztzp2IEA-0m-J-0">
                    <mxCell style="swimlane;fontStyle=0;childLayout=stackLayout;horizontal=1;startSize=30;horizontalStack=0;resizeParent=1;resizeParentMax=0;resizeLast=0;collapsible=1;marginBottom=0;" parent="AxVJe0N2GihpmEPwWlMF-1" vertex="1">
                        <mxGeometry x="-800" y="40" width="140" height="270" as="geometry"/>
                    </mxCell>
                </object>
                <object label="storeID" Key="PRIMARY" Null="No" Unsigned="Yes" AI="Yes" Default="" Type="int(3)" id="bAjtnWxztzp2IEA-0m-J-1">
                    <mxCell style="text;strokeColor=none;fillColor=none;align=left;verticalAlign=middle;spacingLeft=4;spacingRight=4;overflow=hidden;points=[[0,0.5],[1,0.5]];portConstraint=eastwest;rotatable=0;" parent="bAjtnWxztzp2IEA-0m-J-0" vertex="1">
                        <mxGeometry y="30" width="140" height="30" as="geometry"/>
                    </mxCell>
                </object>
                <object label="addressOne" Key="" Null="No" Unsigned="" AI="No" Default="" Type="VARCHAR(255)" placeholders="null" id="bAjtnWxztzp2IEA-0m-J-2">
                    <mxCell style="text;strokeColor=none;fillColor=none;align=left;verticalAlign=middle;spacingLeft=4;spacingRight=4;overflow=hidden;points=[[0,0.5],[1,0.5]];portConstraint=eastwest;rotatable=0;" parent="bAjtnWxztzp2IEA-0m-J-0" vertex="1">
                        <mxGeometry y="60" width="140" height="30" as="geometry"/>
                    </mxCell>
                </object>
                <object label="addressTwo" Key="" Null="No" Unsigned="" AI="No" Default="" Type="VARCHAR(255)" placeholders="null" id="bAjtnWxztzp2IEA-0m-J-3">
                    <mxCell style="text;strokeColor=none;fillColor=none;align=left;verticalAlign=middle;spacingLeft=4;spacingRight=4;overflow=hidden;points=[[0,0.5],[1,0.5]];portConstraint=eastwest;rotatable=0;" parent="bAjtnWxztzp2IEA-0m-J-0" vertex="1">
                        <mxGeometry y="90" width="140" height="30" as="geometry"/>
                    </mxCell>
                </object>
                <object label="addressThree" Key="" Null="Yes" Unsigned="" AI="No" Default="" Type="VARCHAR(255)" placeholders="null" id="bAjtnWxztzp2IEA-0m-J-4">
                    <mxCell style="text;strokeColor=none;fillColor=none;align=left;verticalAlign=middle;spacingLeft=4;spacingRight=4;overflow=hidden;points=[[0,0.5],[1,0.5]];portConstraint=eastwest;rotatable=0;" parent="bAjtnWxztzp2IEA-0m-J-0" vertex="1">
                        <mxGeometry y="120" width="140" height="30" as="geometry"/>
                    </mxCell>
                </object>
                <object label="townCity" Key="" Null="No" Unsigned="" AI="No" Default="" Type="VARCHAR(255)" placeholders="null" id="bAjtnWxztzp2IEA-0m-J-5">
                    <mxCell style="text;strokeColor=none;fillColor=none;align=left;verticalAlign=middle;spacingLeft=4;spacingRight=4;overflow=hidden;points=[[0,0.5],[1,0.5]];portConstraint=eastwest;rotatable=0;" parent="bAjtnWxztzp2IEA-0m-J-0" vertex="1">
                        <mxGeometry y="150" width="140" height="30" as="geometry"/>
                    </mxCell>
                </object>
                <object label="county" Key="" Null="No" Unsigned="" AI="No" Default="" Type="VARCHAR(255)" placeholders="null" id="bAjtnWxztzp2IEA-0m-J-6">
                    <mxCell style="text;strokeColor=none;fillColor=none;align=left;verticalAlign=middle;spacingLeft=4;spacingRight=4;overflow=hidden;points=[[0,0.5],[1,0.5]];portConstraint=eastwest;rotatable=0;" parent="bAjtnWxztzp2IEA-0m-J-0" vertex="1">
                        <mxGeometry y="180" width="140" height="30" as="geometry"/>
                    </mxCell>
                </object>
                <object label="postCode" Key="" Null="No" Unsigned="" AI="No" Default="" Type="VARCHAR(255)" placeholders="null" id="bAjtnWxztzp2IEA-0m-J-7">
                    <mxCell style="text;strokeColor=none;fillColor=none;align=left;verticalAlign=middle;spacingLeft=4;spacingRight=4;overflow=hidden;points=[[0,0.5],[1,0.5]];portConstraint=eastwest;rotatable=0;" parent="bAjtnWxztzp2IEA-0m-J-0" vertex="1">
                        <mxGeometry y="210" width="140" height="30" as="geometry"/>
                    </mxCell>
                </object>
                <object label="status" Key="" Null="No" Unsigned="Yes" AI="No" Default="1" Type="int(1)" placeholders="null" id="bAjtnWxztzp2IEA-0m-J-8">
                    <mxCell style="text;strokeColor=none;fillColor=none;align=left;verticalAlign=middle;spacingLeft=4;spacingRight=4;overflow=hidden;points=[[0,0.5],[1,0.5]];portConstraint=eastwest;rotatable=0;" parent="bAjtnWxztzp2IEA-0m-J-0" vertex="1">
                        <mxGeometry y="240" width="140" height="30" as="geometry"/>
                    </mxCell>
                </object>
                <object label="Product" Key="" Null="" Unsigned="" AI="" Default="" Type="" id="bAjtnWxztzp2IEA-0m-J-9">
                    <mxCell style="swimlane;fontStyle=0;childLayout=stackLayout;horizontal=1;startSize=30;horizontalStack=0;resizeParent=1;resizeParentMax=0;resizeLast=0;collapsible=1;marginBottom=0;" parent="AxVJe0N2GihpmEPwWlMF-1" vertex="1">
                        <mxGeometry x="-520" y="40" width="140" height="210" as="geometry"/>
                    </mxCell>
                </object>
                <object label="productID" Key="PRIMARY" Null="No" Unsigned="Yes" AI="Yes" Default="" Type="int(3)" id="bAjtnWxztzp2IEA-0m-J-10">
                    <mxCell style="text;strokeColor=none;fillColor=none;align=left;verticalAlign=middle;spacingLeft=4;spacingRight=4;overflow=hidden;points=[[0,0.5],[1,0.5]];portConstraint=eastwest;rotatable=0;" parent="bAjtnWxztzp2IEA-0m-J-9" vertex="1">
                        <mxGeometry y="30" width="140" height="30" as="geometry"/>
                    </mxCell>
                </object>
                <object label="productName" Key="" Null="No" Unsigned="" AI="No" Default="" Type="VARCHAR(255)" placeholders="null" id="bAjtnWxztzp2IEA-0m-J-11">
                    <mxCell style="text;strokeColor=none;fillColor=none;align=left;verticalAlign=middle;spacingLeft=4;spacingRight=4;overflow=hidden;points=[[0,0.5],[1,0.5]];portConstraint=eastwest;rotatable=0;" parent="bAjtnWxztzp2IEA-0m-J-9" vertex="1">
                        <mxGeometry y="60" width="140" height="30" as="geometry"/>
                    </mxCell>
                </object>
                <object label="productDesc" Key="" Null="No" Unsigned="" AI="No" Default="" Type="Text" placeholders="null" id="bAjtnWxztzp2IEA-0m-J-12">
                    <mxCell style="text;strokeColor=none;fillColor=none;align=left;verticalAlign=middle;spacingLeft=4;spacingRight=4;overflow=hidden;points=[[0,0.5],[1,0.5]];portConstraint=eastwest;rotatable=0;" parent="bAjtnWxztzp2IEA-0m-J-9" vertex="1">
                        <mxGeometry y="90" width="140" height="30" as="geometry"/>
                    </mxCell>
                </object>
                <object label="productQty" Key="" Null="No" Unsigned="Yes" AI="No" Default="" Type="int(3)" placeholders="null" id="bAjtnWxztzp2IEA-0m-J-13">
                    <mxCell style="text;strokeColor=none;fillColor=none;align=left;verticalAlign=middle;spacingLeft=4;spacingRight=4;overflow=hidden;points=[[0,0.5],[1,0.5]];portConstraint=eastwest;rotatable=0;" parent="bAjtnWxztzp2IEA-0m-J-9" vertex="1">
                        <mxGeometry y="120" width="140" height="30" as="geometry"/>
                    </mxCell>
                </object>
                <object label="productPrice" Key="" Null="No" Unsigned="Yes" AI="No" Default="" Type="Decimal(6,2)" placeholders="null" id="bAjtnWxztzp2IEA-0m-J-14">
                    <mxCell style="text;strokeColor=none;fillColor=none;align=left;verticalAlign=middle;spacingLeft=4;spacingRight=4;overflow=hidden;points=[[0,0.5],[1,0.5]];portConstraint=eastwest;rotatable=0;" parent="bAjtnWxztzp2IEA-0m-J-9" vertex="1">
                        <mxGeometry y="150" width="140" height="30" as="geometry"/>
                    </mxCell>
                </object>
                <object label="status" Key="" Null="No" Unsigned="Yes" AI="No" Default="1" Type="int(1)" placeholders="null" id="bAjtnWxztzp2IEA-0m-J-17">
                    <mxCell style="text;strokeColor=none;fillColor=none;align=left;verticalAlign=middle;spacingLeft=4;spacingRight=4;overflow=hidden;points=[[0,0.5],[1,0.5]];portConstraint=eastwest;rotatable=0;" parent="bAjtnWxztzp2IEA-0m-J-9" vertex="1">
                        <mxGeometry y="180" width="140" height="30" as="geometry"/>
                    </mxCell>
                </object>
                <object label="Customer" Key="" Null="" Unsigned="" AI="" Default="" Type="" id="bAjtnWxztzp2IEA-0m-J-18">
                    <mxCell style="swimlane;fontStyle=0;childLayout=stackLayout;horizontal=1;startSize=30;horizontalStack=0;resizeParent=1;resizeParentMax=0;resizeLast=0;collapsible=1;marginBottom=0;" parent="AxVJe0N2GihpmEPwWlMF-1" vertex="1">
                        <mxGeometry x="-800" y="350" width="140" height="270" as="geometry"/>
                    </mxCell>
                </object>
                <object label="customerID" Key="PRIMARY" Null="No" Unsigned="Yes" AI="Yes" Default="" Type="int(3)" id="bAjtnWxztzp2IEA-0m-J-19">
                    <mxCell style="text;strokeColor=none;fillColor=none;align=left;verticalAlign=middle;spacingLeft=4;spacingRight=4;overflow=hidden;points=[[0,0.5],[1,0.5]];portConstraint=eastwest;rotatable=0;" parent="bAjtnWxztzp2IEA-0m-J-18" vertex="1">
                        <mxGeometry y="30" width="140" height="30" as="geometry"/>
                    </mxCell>
                </object>
                <object label="addressOne" Key="" Null="No" Unsigned="" AI="No" Default="" Type="VARCHAR(255)" placeholders="null" id="bAjtnWxztzp2IEA-0m-J-20">
                    <mxCell style="text;strokeColor=none;fillColor=none;align=left;verticalAlign=middle;spacingLeft=4;spacingRight=4;overflow=hidden;points=[[0,0.5],[1,0.5]];portConstraint=eastwest;rotatable=0;" parent="bAjtnWxztzp2IEA-0m-J-18" vertex="1">
                        <mxGeometry y="60" width="140" height="30" as="geometry"/>
                    </mxCell>
                </object>
                <object label="addressTwo" Key="" Null="No" Unsigned="" AI="No" Default="" Type="VARCHAR(255)" placeholders="null" id="bAjtnWxztzp2IEA-0m-J-21">
                    <mxCell style="text;strokeColor=none;fillColor=none;align=left;verticalAlign=middle;spacingLeft=4;spacingRight=4;overflow=hidden;points=[[0,0.5],[1,0.5]];portConstraint=eastwest;rotatable=0;" parent="bAjtnWxztzp2IEA-0m-J-18" vertex="1">
                        <mxGeometry y="90" width="140" height="30" as="geometry"/>
                    </mxCell>
                </object>
                <object label="addressThree" Key="" Null="Yes" Unsigned="" AI="No" Default="" Type="VARCHAR(255)" placeholders="null" id="bAjtnWxztzp2IEA-0m-J-22">
                    <mxCell style="text;strokeColor=none;fillColor=none;align=left;verticalAlign=middle;spacingLeft=4;spacingRight=4;overflow=hidden;points=[[0,0.5],[1,0.5]];portConstraint=eastwest;rotatable=0;" parent="bAjtnWxztzp2IEA-0m-J-18" vertex="1">
                        <mxGeometry y="120" width="140" height="30" as="geometry"/>
                    </mxCell>
                </object>
                <object label="townCity" Key="" Null="No" Unsigned="" AI="No" Default="" Type="VARCHAR(255)" placeholders="null" id="bAjtnWxztzp2IEA-0m-J-23">
                    <mxCell style="text;strokeColor=none;fillColor=none;align=left;verticalAlign=middle;spacingLeft=4;spacingRight=4;overflow=hidden;points=[[0,0.5],[1,0.5]];portConstraint=eastwest;rotatable=0;" parent="bAjtnWxztzp2IEA-0m-J-18" vertex="1">
                        <mxGeometry y="150" width="140" height="30" as="geometry"/>
                    </mxCell>
                </object>
                <object label="county" Key="" Null="No" Unsigned="" AI="No" Default="" Type="VARCHAR(255)" placeholders="null" id="bAjtnWxztzp2IEA-0m-J-24">
                    <mxCell style="text;strokeColor=none;fillColor=none;align=left;verticalAlign=middle;spacingLeft=4;spacingRight=4;overflow=hidden;points=[[0,0.5],[1,0.5]];portConstraint=eastwest;rotatable=0;" parent="bAjtnWxztzp2IEA-0m-J-18" vertex="1">
                        <mxGeometry y="180" width="140" height="30" as="geometry"/>
                    </mxCell>
                </object>
                <object label="postCode" Key="" Null="No" Unsigned="" AI="No" Default="" Type="VARCHAR(255)" placeholders="null" id="bAjtnWxztzp2IEA-0m-J-25">
                    <mxCell style="text;strokeColor=none;fillColor=none;align=left;verticalAlign=middle;spacingLeft=4;spacingRight=4;overflow=hidden;points=[[0,0.5],[1,0.5]];portConstraint=eastwest;rotatable=0;" parent="bAjtnWxztzp2IEA-0m-J-18" vertex="1">
                        <mxGeometry y="210" width="140" height="30" as="geometry"/>
                    </mxCell>
                </object>
                <object label="status" Key="" Null="No" Unsigned="Yes" AI="No" Default="1" Type="int(1)" placeholders="null" id="bAjtnWxztzp2IEA-0m-J-26">
                    <mxCell style="text;strokeColor=none;fillColor=none;align=left;verticalAlign=middle;spacingLeft=4;spacingRight=4;overflow=hidden;points=[[0,0.5],[1,0.5]];portConstraint=eastwest;rotatable=0;" parent="bAjtnWxztzp2IEA-0m-J-18" vertex="1">
                        <mxGeometry y="240" width="140" height="30" as="geometry"/>
                    </mxCell>
                </object>
                <object label="Shopping_Cart" Key="" Null="" Unsigned="" AI="" Default="" Type="" id="bAjtnWxztzp2IEA-0m-J-27">
                    <mxCell style="swimlane;fontStyle=0;childLayout=stackLayout;horizontal=1;startSize=30;horizontalStack=0;resizeParent=1;resizeParentMax=0;resizeLast=0;collapsible=1;marginBottom=0;" parent="AxVJe0N2GihpmEPwWlMF-1" vertex="1">
                        <mxGeometry x="-520" y="360" width="140" height="210" as="geometry"/>
                    </mxCell>
                </object>
                <object label="shoppingCartID" Key="PRIMARY" Null="No" Unsigned="Yes" AI="Yes" Default="" Type="int(3)" id="bAjtnWxztzp2IEA-0m-J-28">
                    <mxCell style="text;strokeColor=none;fillColor=none;align=left;verticalAlign=middle;spacingLeft=4;spacingRight=4;overflow=hidden;points=[[0,0.5],[1,0.5]];portConstraint=eastwest;rotatable=0;" parent="bAjtnWxztzp2IEA-0m-J-27" vertex="1">
                        <mxGeometry y="30" width="140" height="30" as="geometry"/>
                    </mxCell>
                </object>
                <object label="storeID" Key="FOREIGN" Null="No" Unsigned="Yes" AI="No" Default="" Type="int(3)" id="bAjtnWxztzp2IEA-0m-J-29">
                    <mxCell style="text;strokeColor=none;fillColor=none;align=left;verticalAlign=middle;spacingLeft=4;spacingRight=4;overflow=hidden;points=[[0,0.5],[1,0.5]];portConstraint=eastwest;rotatable=0;" parent="bAjtnWxztzp2IEA-0m-J-27" vertex="1">
                        <mxGeometry y="60" width="140" height="30" as="geometry"/>
                    </mxCell>
                </object>
                <object label="cutomerID" Key="FOREIGN" Null="No" Unsigned="Yes" AI="No" Default="" Type="int(3)" placeholders="null" id="bAjtnWxztzp2IEA-0m-J-30">
                    <mxCell style="text;strokeColor=none;fillColor=none;align=left;verticalAlign=middle;spacingLeft=4;spacingRight=4;overflow=hidden;points=[[0,0.5],[1,0.5]];portConstraint=eastwest;rotatable=0;" parent="bAjtnWxztzp2IEA-0m-J-27" vertex="1">
                        <mxGeometry y="90" width="140" height="30" as="geometry"/>
                    </mxCell>
                </object>
                <object label="Date" Key="" Null="No" Unsigned="No" AI="No" Default="" Type="TIMESTAMP" id="bAjtnWxztzp2IEA-0m-J-31">
                    <mxCell style="text;strokeColor=none;fillColor=none;align=left;verticalAlign=middle;spacingLeft=4;spacingRight=4;overflow=hidden;points=[[0,0.5],[1,0.5]];portConstraint=eastwest;rotatable=0;" parent="bAjtnWxztzp2IEA-0m-J-27" vertex="1">
                        <mxGeometry y="120" width="140" height="30" as="geometry"/>
                    </mxCell>
                </object>
                <object label="total" Key="" Null="No" Unsigned="Yes" AI="No" Default="" Type="Decimal(7,2)" placeholders="null" id="bAjtnWxztzp2IEA-0m-J-32">
                    <mxCell style="text;strokeColor=none;fillColor=none;align=left;verticalAlign=middle;spacingLeft=4;spacingRight=4;overflow=hidden;points=[[0,0.5],[1,0.5]];portConstraint=eastwest;rotatable=0;" parent="bAjtnWxztzp2IEA-0m-J-27" vertex="1">
                        <mxGeometry y="150" width="140" height="30" as="geometry"/>
                    </mxCell>
                </object>
                <object label="status" Key="" Null="No" Unsigned="Yes" AI="No" Default="1" Type="int(1)" placeholders="null" id="bAjtnWxztzp2IEA-0m-J-33">
                    <mxCell style="text;strokeColor=none;fillColor=none;align=left;verticalAlign=middle;spacingLeft=4;spacingRight=4;overflow=hidden;points=[[0,0.5],[1,0.5]];portConstraint=eastwest;rotatable=0;" parent="bAjtnWxztzp2IEA-0m-J-27" vertex="1">
                        <mxGeometry y="180" width="140" height="30" as="geometry"/>
                    </mxCell>
                </object>
                <object label="Shopping_Cart_Detail" Key="" Null="" Unsigned="" AI="" Default="" Type="" id="bAjtnWxztzp2IEA-0m-J-34">
                    <mxCell style="swimlane;fontStyle=0;childLayout=stackLayout;horizontal=1;startSize=30;horizontalStack=0;resizeParent=1;resizeParentMax=0;resizeLast=0;collapsible=1;marginBottom=0;" parent="AxVJe0N2GihpmEPwWlMF-1" vertex="1">
                        <mxGeometry x="-260" y="360" width="140" height="210" as="geometry"/>
                    </mxCell>
                </object>
                <object label="shoppingCartDetID" Key="PRIMARY" Null="No" Unsigned="Yes" AI="Yes" Default="" Type="int(3)" id="bAjtnWxztzp2IEA-0m-J-41">
                    <mxCell style="text;strokeColor=none;fillColor=none;align=left;verticalAlign=middle;spacingLeft=4;spacingRight=4;overflow=hidden;points=[[0,0.5],[1,0.5]];portConstraint=eastwest;rotatable=0;" parent="bAjtnWxztzp2IEA-0m-J-34" vertex="1">
                        <mxGeometry y="30" width="140" height="30" as="geometry"/>
                    </mxCell>
                </object>
                <object label="shoppingCartID" Key="FOREIGN" Null="No" Unsigned="Yes" AI="No" Default="" Type="int(3)" id="bAjtnWxztzp2IEA-0m-J-35">
                    <mxCell style="text;strokeColor=none;fillColor=none;align=left;verticalAlign=middle;spacingLeft=4;spacingRight=4;overflow=hidden;points=[[0,0.5],[1,0.5]];portConstraint=eastwest;rotatable=0;" parent="bAjtnWxztzp2IEA-0m-J-34" vertex="1">
                        <mxGeometry y="60" width="140" height="30" as="geometry"/>
                    </mxCell>
                </object>
                <object label="productID" Key="FOREIGN" Null="No" Unsigned="Yes" AI="No" Default="" Type="int(3)" id="bAjtnWxztzp2IEA-0m-J-36">
                    <mxCell style="text;strokeColor=none;fillColor=none;align=left;verticalAlign=middle;spacingLeft=4;spacingRight=4;overflow=hidden;points=[[0,0.5],[1,0.5]];portConstraint=eastwest;rotatable=0;" parent="bAjtnWxztzp2IEA-0m-J-34" vertex="1">
                        <mxGeometry y="90" width="140" height="30" as="geometry"/>
                    </mxCell>
                </object>
                <object label="productQtyAdded" Key="" Null="No" Unsigned="Yes" AI="No" Default="" Type="int(3)" placeholders="null" id="bAjtnWxztzp2IEA-0m-J-37">
                    <mxCell style="text;strokeColor=none;fillColor=none;align=left;verticalAlign=middle;spacingLeft=4;spacingRight=4;overflow=hidden;points=[[0,0.5],[1,0.5]];portConstraint=eastwest;rotatable=0;" parent="bAjtnWxztzp2IEA-0m-J-34" vertex="1">
                        <mxGeometry y="120" width="140" height="30" as="geometry"/>
                    </mxCell>
                </object>
                <object label="price" Key="" Null="No" Unsigned="No" AI="No" Default="" Type="Decimal(6,2)" id="bAjtnWxztzp2IEA-0m-J-38">
                    <mxCell style="text;strokeColor=none;fillColor=none;align=left;verticalAlign=middle;spacingLeft=4;spacingRight=4;overflow=hidden;points=[[0,0.5],[1,0.5]];portConstraint=eastwest;rotatable=0;" parent="bAjtnWxztzp2IEA-0m-J-34" vertex="1">
                        <mxGeometry y="150" width="140" height="30" as="geometry"/>
                    </mxCell>
                </object>
                <object label="status" Key="" Null="No" Unsigned="Yes" AI="No" Default="1" Type="int(1)" placeholders="null" id="bAjtnWxztzp2IEA-0m-J-40">
                    <mxCell style="text;strokeColor=none;fillColor=none;align=left;verticalAlign=middle;spacingLeft=4;spacingRight=4;overflow=hidden;points=[[0,0.5],[1,0.5]];portConstraint=eastwest;rotatable=0;" parent="bAjtnWxztzp2IEA-0m-J-34" vertex="1">
                        <mxGeometry y="180" width="140" height="30" as="geometry"/>
                    </mxCell>
                </object>
                <mxCell id="bAjtnWxztzp2IEA-0m-J-42" value="" style="edgeStyle=orthogonalEdgeStyle;fontSize=12;html=1;endArrow=ERoneToMany;startArrow=ERmandOne;exitX=1;exitY=0.5;exitDx=0;exitDy=0;entryX=0;entryY=0.5;entryDx=0;entryDy=0;" parent="AxVJe0N2GihpmEPwWlMF-1" source="bAjtnWxztzp2IEA-0m-J-1" target="bAjtnWxztzp2IEA-0m-J-29" edge="1">
                    <mxGeometry width="100" height="100" relative="1" as="geometry">
                        <mxPoint x="-640" y="280" as="sourcePoint"/>
                        <mxPoint x="-540" y="180" as="targetPoint"/>
                        <Array as="points">
                            <mxPoint x="-580" y="85"/>
                            <mxPoint x="-580" y="435"/>
                        </Array>
                    </mxGeometry>
                </mxCell>
                <mxCell id="bAjtnWxztzp2IEA-0m-J-43" value="" style="edgeStyle=orthogonalEdgeStyle;fontSize=12;html=1;endArrow=ERoneToMany;startArrow=ERmandOne;exitX=1;exitY=0.5;exitDx=0;exitDy=0;entryX=0;entryY=0.5;entryDx=0;entryDy=0;" parent="AxVJe0N2GihpmEPwWlMF-1" source="bAjtnWxztzp2IEA-0m-J-28" target="bAjtnWxztzp2IEA-0m-J-35" edge="1">
                    <mxGeometry width="100" height="100" relative="1" as="geometry">
                        <mxPoint x="-360" y="410" as="sourcePoint"/>
                        <mxPoint x="-260" y="310" as="targetPoint"/>
                    </mxGeometry>
                </mxCell>
                <mxCell id="bAjtnWxztzp2IEA-0m-J-44" value="" style="edgeStyle=orthogonalEdgeStyle;fontSize=12;html=1;endArrow=ERoneToMany;startArrow=ERmandOne;exitX=1;exitY=0.5;exitDx=0;exitDy=0;entryX=1;entryY=0.5;entryDx=0;entryDy=0;" parent="AxVJe0N2GihpmEPwWlMF-1" source="bAjtnWxztzp2IEA-0m-J-10" target="bAjtnWxztzp2IEA-0m-J-36" edge="1">
                    <mxGeometry width="100" height="100" relative="1" as="geometry">
                        <mxPoint x="-100" y="460" as="sourcePoint"/>
                        <mxPoint y="360" as="targetPoint"/>
                        <Array as="points">
                            <mxPoint x="-70" y="85"/>
                            <mxPoint x="-70" y="465"/>
                        </Array>
                    </mxGeometry>
                </mxCell>
            </root>
        </mxGraphModel>
    </diagram>
</mxfile>